<?xml version="1.0" standalone="no"?><!DOCTYPE svg PUBLIC "-//W3C//DTD SVG 1.1//EN" "http://www.w3.org/Graphics/SVG/1.1/DTD/svg11.dtd"><svg t="1742664444676" class="icon" viewBox="0 0 1024 1024" version="1.1" xmlns="http://www.w3.org/2000/svg" p-id="36415" xmlns:xlink="http://www.w3.org/1999/xlink" width="200" height="200"><path d="M976.8 516c0 138.4-59.2 262.4-154.4 348.8-84 76-194.4 122.4-316.8 122.4s-232.8-46.4-316.8-122.4C94.4 778.4 34.4 654.4 34.4 516 34.4 256 245.6 44.8 505.6 44.8s471.2 211.2 471.2 471.2z" fill="#ff95a2" p-id="36416"></path><path d="M698.4 383.2c0-106.4-86.4-192-192-192s-192 86.4-192 192 86.4 192 192 192 192-85.6 192-192z" fill="#82382B" p-id="36417"></path><path d="M420.8 190.4c0 47.2 38.4 85.6 85.6 85.6S592 237.6 592 190.4s-38.4-85.6-85.6-85.6-85.6 38.4-85.6 85.6z" fill="#82382B" p-id="36418"></path><path d="M790.4 795.2c-1.6-1.6-4-4-7.2-5.6-12.8-10.4-35.2-26.4-77.6-49.6-0.8-0.8-2.4-0.8-3.2-1.6l-122.4-32-72.8 38.4h-0.8L432 704l-2.4-0.8L313.6 736c-45.6 24-69.6 40.8-83.2 52-3.2 3.2-6.4 5.6-8.8 7.2-12.8 11.2-23.2 36.8-32 68.8 84 76 194.4 122.4 316.8 122.4s232.8-46.4 316.8-122.4c-9.6-31.2-20-56.8-32.8-68.8z" fill="#6FC9A2" p-id="36419"></path><path d="M432 544.8v168.8c20.8 24 47.2 36.8 74.4 36.8 26.4 0 52.8-12 73.6-36.8V544.8c-0.8-91.2-148-91.2-148 0z" fill="#FFDECC" p-id="36420"></path><path d="M432 544.8v112.8c28 20 55.2 32 73.6 32s45.6-11.2 73.6-32V544.8c0-91.2-147.2-91.2-147.2 0z" fill="#F7C5AA" p-id="36421"></path><path d="M554.4 259.2c-5.6-1.6-12-2.4-18.4-3.2h-3.2c-9.6-0.8-19.2-1.6-29.6-1.6-19.2 0-36 1.6-52 4.8C346.4 281.6 327.2 376 332 456.8v4c0.8 4.8 0.8 9.6 1.6 14.4 2.4 20 5.6 38.4 9.6 54.4 6.4 24.8 12.8 42.4 16.8 48 9.6 13.6 37.6 40 68 61.6 26.4 19.2 55.2 34.4 74.4 34.4 18.4 0 47.2-15.2 73.6-33.6 31.2-21.6 59.2-48 68.8-62.4 3.2-4.8 10.4-22.4 16-47.2 4-16 7.2-34.4 9.6-54.4 0.8-4.8 0.8-9.6 1.6-14.4 0-1.6 0-3.2 0.8-5.6 5.6-80-13.6-174.4-118.4-196.8z" fill="#FFDECC" p-id="36422"></path><path d="M696 450.4c-3.2-0.8-6.4-0.8-9.6 0-1.6 0.8-3.2 1.6-5.6 2.4-1.6 0.8-3.2 1.6-4 3.2-1.6 0.8-3.2 2.4-4 4-5.6 5.6-10.4 14.4-13.6 24-2.4 6.4-3.2 13.6-3.2 20 0 11.2 3.2 20.8 9.6 25.6 1.6 0.8 2.4 1.6 4 2.4 12.8 4 29.6-10.4 36.8-32.8 7.2-22.4 2.4-44-10.4-48.8z m-340 52.8c0-6.4-1.6-12.8-3.2-20-1.6-4-3.2-8-4.8-11.2-3.2-6.4-8-12-12-16-0.8-0.8-1.6-1.6-2.4-1.6-2.4-1.6-4.8-3.2-7.2-4-3.2-0.8-7.2-1.6-10.4 0-12.8 4-17.6 26.4-10.4 48.8s24 37.6 36.8 32.8l4.8-2.4c5.6-4.8 8.8-14.4 8.8-26.4z" fill="#FFDECC" p-id="36423"></path><path d="M498.4 235.2c-3.2-0.8-6.4-0.8-9.6-0.8 0 0-120-4.8-149.6 132.8-14.4 10.4-26.4 64.8 8 111.2 4.8-39.2 19.2-67.2 44-77.6 44-19.2 61.6-1.6 112.8-40 29.6-22.4 45.6-72 39.2-97.6-12.8-32.8-48-27.2-44.8-28z" fill="#82382B" p-id="36424"></path><path d="M538.4 241.6s-41.6 155.2 140 220c43.2-141.6-36-234.4-140-220z" fill="#82382B" p-id="36425"></path><path d="M506.4 762.4s-48 15.2-77.6 20.8c-19.2 3.2-40.8 5.6-62.4 5.6-44.8-1.6-56.8-16.8-58.4-31.2-0.8-11.2 4.8-21.6 4.8-21.6l56-16 64.8-18.4 72 32.8 0.8 28zM709.6 761.6c-1.6 13.6-14.4 28.8-57.6 29.6-21.6 0.8-44-1.6-63.2-5.6-29.6-5.6-80.8-24-80.8-24l-0.8-28 73.6-28 71.2 18.4 54.4 14.4c-1.6 0.8 4.8 11.2 3.2 23.2z" fill="#FFFFFF" p-id="36426"></path><path d="M504 773.6l-64 22.4-4.8-24.8 64-12.8 4.8 15.2z m4.8 0l64 22.4 4.8-24.8-63.2-12.8-5.6 15.2z" fill="#544742" p-id="36427"></path><path d="M497.6 755.2h18.4v25.6h-18.4v-25.6z" fill="#47372F" p-id="36428"></path><path d="M504.8 609.6c-11.2 0-21.6-4.8-28.8-12.8-1.6-1.6-1.6-4.8 0.8-5.6 1.6-1.6 4-1.6 5.6 0.8 2.4 3.2 5.6 4.8 8.8 6.4 4.8 2.4 9.6 4 14.4 4 8.8 0 17.6-4 23.2-10.4 1.6-1.6 4-1.6 6.4-0.8 1.6 1.6 1.6 4 0.8 6.4-9.6 7.2-20 12-31.2 12zM401.6 494.4c0 9.6 4 19.2 12 24 6.4 4.8 15.2 4.8 23.2 0 6.4-4.8 12-14.4 12-24 0-15.2-10.4-28-23.2-28-13.6 0-24 12.8-24 28z m164 0c0 15.2 10.4 28 23.2 28s23.2-12.8 23.2-28-10.4-28-23.2-28-23.2 12.8-23.2 28zM456.8 448s-17.6-8-31.2-8c-13.6 0-35.2 8-35.2 8-1.6 0-2.4-0.8-2.4-2.4 0-1.6 0.8-2.4 2.4-2.4 0 0 20-8 35.2-8 15.2 0 31.2 8 31.2 8 1.6 0 2.4 0.8 2.4 2.4 0 0.8-0.8 2.4-2.4 2.4zM562.4 448s17.6-8 30.4-8c13.6 0 34.4 8 34.4 8 1.6 0 2.4-0.8 2.4-2.4 0-1.6-0.8-2.4-2.4-2.4 0 0-19.2-8-34.4-8s-31.2 8-31.2 8c-1.6 0-2.4 0.8-2.4 2.4 0.8 1.6 1.6 2.4 3.2 2.4z" fill="#4B5169" p-id="36429"></path><path d="M538.4 247.2s-41.6 155.2 140 220c43.2-141.6-36-234.4-140-220z" fill="#82382B" p-id="36430"></path></svg>