<?xml version="1.0" standalone="no"?><!DOCTYPE svg PUBLIC "-//W3C//DTD SVG 1.1//EN" "http://www.w3.org/Graphics/SVG/1.1/DTD/svg11.dtd"><svg t="1742664085762" class="icon" viewBox="0 0 1024 1024" version="1.1" xmlns="http://www.w3.org/2000/svg" p-id="27735" xmlns:xlink="http://www.w3.org/1999/xlink" width="200" height="200"><path d="M512 512m-512 0a512 512 0 1 0 1024 0 512 512 0 1 0-1024 0Z" fill="#FFFFFF" p-id="27736"></path><path d="M512 32A480 480 0 0 0 172.576 851.424 480 480 0 1 0 851.424 172.576 476.8 476.8 0 0 0 512 32m0-32A512 512 0 1 1 0 512 512 512 0 0 1 512 0z" fill="#EBEBEB" p-id="27737"></path><path d="M677.28 536.384a29.088 29.088 0 0 0 11.168-24.448c1.472-8.64-5.312-16.768-11.136-23.456l-210.592-207.296a27.616 27.616 0 0 0-26.816-7.744 27.264 27.264 0 0 0-19.552 19.552 26.88 26.88 0 0 0 7.84 26.528l200.224 193.056-200.448 193.376a26.88 26.88 0 0 0 0.64 37.696 27.616 27.616 0 0 0 38.08 0.64z" fill="#5B6069" p-id="27738"></path></svg>